<svg xmlns="http://www.w3.org/2000/svg" xmlns:xlink="http://www.w3.org/1999/xlink" version="1.1" x="0px" y="0px" viewBox="0 0 291.5 573.25" style="enable-background:new 0 0 291.5 458.6;" xml:space="preserve"><style type="text/css">
    .st0{fill:#FFFFFF;stroke:#A7A9AC;stroke-width:9;stroke-miterlimit:10;}
    .st1{fill:#939598;}
    .st2{fill:#BCBEC0;}
    .st3{fill:#B8BABC;}
    .st4{fill:#808285;}
    .st5{fill:#6D6E71;}
    .st6{fill:#A7A9AC;}
    .st7{fill:#D1D3D4;}
    .st8{fill:#E6E7E8;}
    .st9{fill:#919396;}
    .st10{fill:#E4E5E6;}
    .st11{fill:#FFFFFF;stroke:#A7A9AC;stroke-miterlimit:10;}
</style><path d="M62.2,458.6l120.1-2.2v-53.1h25l77.7-106.1l5.3-6.1c0,0-1.3-9.7,0-11c1.3-1.3,0-10.2,0-12.9c0-2.7-7.6-6.4-7.6-9.1  c0-2.7-3.2-19.5-4.6-20.8c-1.3-1.3-5.1-9.7-7.6-12.1c-2.5-2.5-7.2-11-10.6-14.4c-3.4-3.4-3-15.7-3-15.7s0.8-7.4,0.8-9.3  c0-1.9,7.2-17.1,7.2-17.1s9.1-20.5,9.1-22c0-1.5,3.4-12.5,3.4-14.8c0-2.3,5.3-14.4,5.3-14.4l5.7-19c0,0,4.7-8.4,2.5-10.6  c-2.2-2.2-8.2-4.2-8.2-4.2s-7.8-4.4-11.4-8c-3.6-3.6-6.8-10.6-8.7-10.6s-10.6-4.9-10.6-4.9s-6.1,0.4-9.5-3c-3.4-3.4-6.8-6.8-6.8-9.5  s0-13.3,0-13.3s-4.9-2.3-8.3-5.7s-6.8-7.6-6.8-7.6s-4.9-4.2-6.8-4.2c-1.9,0-31.5-1.5-31.5-1.5l-9.1-1.9c0,0,0.8-4.2-6.4-4.2  c-7.2,0-11.4-2.7-13.3-2.7s-8.3,0-8.3,0l-6.4,4.5l-3.8-2.3c0,0-0.8-4.9-2.3-4.9c-1.5,0-7.6-4.2-14-4.2S98.6,3,98.6,3L86,3.8  L73.5,8.3l-14,5.3v17.4c0,0-7.6,10.2-11.4,10.2s-18.6,6.1-18.6,6.1L15.2,88.7l-10.2,39c0,0-4.9,6.8-4.9,11.4s4.5,47.8,4.5,47.8  l0.4,11.8l17.6,5.8c0,0,7.6,1.6,13.2,3.6s6.8,10,6.8,10l2.2,13.8h23.4l-2.2,30.6l-3,22.3L59.6,299l-6.4,17.5L62.2,458.6z"/></svg>
